<?xml version="1.0" encoding="utf-8"?>
<!-- Generator: Adobe Illustrator 19.2.0, SVG Export Plug-In . SVG Version: 6.00 Build 0)  -->
<svg version="1.1" id="Layer_1" xmlns="http://www.w3.org/2000/svg" xmlns:xlink="http://www.w3.org/1999/xlink" x="0px" y="0px"
	 viewBox="0 0 1000 1000" style="enable-background:new 0 0 1000 1000;" xml:space="preserve">
<style type="text/css">
	.st0{fill:#12122C;}
	.st1{fill:#FEBE12;}
</style>
<rect class="st0" width="1000" height="1000"/>
<g id="SvPfmu.tif">
	<g>
		<path class="st1" d="M373.8,842c-1,0-2,0-3,0c-0.1-4.3,0-8.7-0.3-13c-0.6-8.6-1-17.3-2.1-25.8c-1.2-9.3-3.1-18.6-4.8-27.8
			c-2.7-14.9-4.9-30-8.2-44.8c-2.9-13.2-7-26.1-10.7-39.1c-1.1-3.9-2.1-7.9-3.5-11.8c-2.8-8-5.9-16-8.7-24c-2.6-7.4-4.7-15-7.8-22.2
			c-5-12.1-10.7-23.9-16-35.9c-4-9-7.4-18.2-11.8-27c-6-12-12.7-23.6-19.1-35.4c-5-9.3-9.6-18.9-15-28c-6-10.2-12.6-20-19.2-29.9
			c-9.2-13.8-18.3-27.7-27.8-41.2c-10.5-14.9-21.2-29.7-32.3-44.2c-8.6-11.3-19.2-21.2-24.5-34.7c-3.1-8-7.9-15.9-4.8-25.1
			c1.1-1.8,1.6-4,2.9-5.5c3.1-3.4,6.1-8.4,10-9.4c13.7-3.5,25.6,2.1,34,12.3c12.2,15,23.3,30.9,34.2,47c6.9,10.1,12.5,21,18.6,31.6
			c5.7,9.9,11.3,19.8,16.9,29.7c1.7,3,3.3,5.9,5.5,9.7c1.7-1.6,3.4-2.6,3.9-4c3.7-9.1,6.9-18.5,10.8-27.5c3.3-7.6,6.6-15.4,11-22.3
			c7.2-11.4,15-22.5,23.3-33.2c9.7-12.3,19.7-24.4,30.5-35.7c11.4-12,23.4-23.5,35.8-34.5c8.8-7.8,18.6-14.3,28-21.4
			c5.7-4.3,11.2-8.9,17.1-12.9c8.3-5.7,16.7-11.1,25.3-16.3c10.8-6.5,21.7-12.6,32.6-18.8c5.3-3.1,10.7-6.1,16.1-9
			c5.3-2.8,10.7-5.4,16.2-7.8c6.6-2.9,13.2-5.6,19.9-8.4c7.2-3,14.4-6.2,21.7-8.9c7.7-2.9,15.5-5.4,23.3-8c6.5-2.1,13.1-4.2,19.8-6
			c6.2-1.7,12.5-2.9,18.8-4.4c8-1.9,15.9-4.3,24-5.5c11.6-1.7,23.3-2.5,35-3.7c4.4-0.4,8.8-0.8,13.3-1.2c11.7,0,23.3,0,35,0
			c0.6,0.2,1.2,0.7,1.8,0.7c13,0.5,25.7,2.8,38.1,6.8c8.2,2.7,15.8,5.8,22.7,11c14.1,10.6,22.3,24.3,22.6,42.2
			c0.1,6.3,0.1,12.7,0,19c0,2.3,0,4.7-0.7,6.9c-3,10.3-6.1,20.5-9.6,30.6c-2.3,6.8-4.8,13.6-8.1,20c-6.2,11.7-13,23.1-19.7,34.5
			c-3.6,6.1-7.1,12.1-11.1,17.9c-4.1,5.9-8.6,11.4-13,17.1c-6.3,8.1-12.4,16.4-19.1,24.2c-7.2,8.5-15,16.4-22.4,24.7
			c-11.1,12.4-22.8,24-36,34.2c-4.3,3.3-7.8,7.5-11.9,11.5c11.7,10,22.9,19.2,33.7,28.9c13.1,11.7,26.4,23.1,38.5,35.8
			c11.8,12.3,22.3,25.7,33,39c7.7,9.5,15,19.3,21.8,29.5c6.2,9.2,11.7,18.9,16.9,28.7c5.2,9.8,10,19.9,14.3,30.1
			c3.3,7.7,5.7,15.8,8.2,23.8c2.1,6.7,3.7,13.5,5.4,20.3c1.3,5.2,2.4,10.4,3.7,15.6c0,10.3,0,20.7,0,31c-0.6,1.3-1.4,2.5-1.8,3.9
			c-2.9,8.9-4.5,18.4-8.8,26.5c-5.8,10.8-14.5,19.4-25.3,25.8c-10.7,6.4-22.2,10.2-34.1,13.4c-12.6,3.4-25.4,3.2-38.1,3.3
			c-13.9,0.2-27.9-0.4-41.5-3.9c-7.4-1.9-14.9-3-22.2-5.1c-8.5-2.5-16.8-5.7-25.1-8.7c-7.2-2.6-14.4-5.2-21.5-8.2
			c-6.6-2.8-13-6-19.4-9.1c-7.6-3.8-15.3-7.4-22.7-11.6c-6.6-3.7-12.8-8.1-19.2-12.1c-8.1-5.1-16.7-9.5-24.5-15.1
			c-11.8-8.5-23.3-17.3-34.4-26.6c-14.1-11.8-28.3-23.5-41.3-36.5c-15.5-15.6-29.8-32.3-44.3-48.8c-6.2-7.1-12.1-14.5-17.7-22.1
			c-6.2-8.5-12-17.3-16.9-24.5c-19.6-2.9-37.4-5.6-57.1-8.5c1.7,4.5,3.1,7.7,4.1,11c2.8,9.4,5.5,18.9,8.1,28.3
			c1.3,4.5,2.6,9.1,3.9,13.6c2,7.2,4.2,14.4,6,21.7c1.6,6.4,2.7,12.8,4.3,19.2c1.8,7.6,4.3,15.1,5.7,22.8c1.8,9.9,2.6,19.9,4,29.8
			c1.9,13.2,5.3,26.3,5.9,39.6C373.8,787.3,373.5,814.7,373.8,842z M615.9,216.6c-0.1-0.1-0.1-0.2-0.2-0.2c-2.9,1.3-5.9,2.6-8.8,4
			c-10.8,5-21.9,9.5-32.4,15.1c-12,6.3-23.7,13.2-35.2,20.5c-11.5,7.3-22.8,15.1-33.8,23.3c-14.6,10.9-29.2,21.9-42.9,33.8
			c-13.1,11.4-25.1,23.9-37.4,36.1c-3.4,3.4-6.2,7.5-9.2,11.2c0.4,0.4,0.7,0.8,1.1,1.2c5.5,0,10.9-0.3,16.3,0.1
			c13.8,0.8,27.7-1.7,41.5,2.8c8.3,2.7,17.5,3,26.2,4.3c0.6,0.1,1.3,0.3,1.9,0.5c5.8,2,11.6,4.1,17.4,6c4.3,1.5,8.8,2.5,13,4.2
			c6.7,2.8,13.3,6.1,20,9.1c8.4,3.8,17,7.2,25.2,11.5c9.2,4.8,17.9,10.5,26.9,15.6c3,1.7,6.1,3.1,9.2,4.6
			c58-45.4,107-97.3,138.9-161.4c6.2-23.7,11.9-45.5-15.2-58.1c-10.5-4.9-21.8-3.7-33-3.8c-4.8,0-9.7-0.3-14.5,0.2
			c-9.1,0.9-18.2,2.3-27.3,3.5c-0.8,0.1-1.6,0.6-2.4,0.8c-6.1,1.9-12.1,3.8-18.2,5.7c-5,1.5-10.1,2.8-15.1,4.5
			C623.9,213.1,620,215,615.9,216.6z M615.1,498.7c-27,18.2-55.1,33-84.3,46.1c-29.5,13.3-60.3,22.5-92.8,30.5
			c5.3,6.2,9,11.2,13.4,15.6c12.5,12.4,24.8,25.1,38,36.8c13,11.5,26.9,22.1,40.7,32.7c6.8,5.2,14.3,9.7,21.5,14.4
			c6.7,4.4,13.4,8.9,20.3,13.1c7.3,4.3,14.7,8.4,22.2,12.2c5.5,2.8,11.2,5.3,16.9,7.7c4.7,2,9.5,3.9,14.4,5.7
			c5,1.9,10.1,3.7,15.3,5.2c5.1,1.5,10.4,2.5,15.6,3.7c7.8,1.8,15.5,4.2,23.4,5.3c13.2,1.9,25.8-0.2,38.2-5.6
			c10.7-4.7,17-13.1,19.1-23.4c2.8-13.6,0.1-27.3-3.8-40.7c-0.1-0.5-0.5-0.8-0.7-1.3c-1.9-4.6-3.9-9.2-5.7-13.9
			c-1.5-3.8-2.3-7.9-4.2-11.5c-5-9.3-10.3-18.5-15.9-27.6c-5.2-8.4-10.1-17.1-16.3-24.8c-12-14.8-24.4-29.3-37.4-43.2
			C641.1,523.2,628.2,511.4,615.1,498.7z M549.8,454c-1.7-2.8-2.3-5-3.8-6c-4.5-2.9-9.2-5.4-14-7.8c-12.9-6.6-25.9-13.2-39-19.6
			c-4.1-2-8.6-3.1-12.9-4.5c-4.5-1.5-9-2.9-13.5-4.2c-7.4-2-14.7-4.9-22.2-5.5c-11.6-0.9-23.3-0.3-35-0.2c-1.5,0-3,0.2-4.3,0.7
			c-4.4,1.9-8.6,3.9-12.9,6c-11.4,5.5-17.7,14.6-18.1,27.2c-0.2,4.2,2,8.5,2.7,12.8c1,6.4,4.7,11.3,9.4,14.9
			c5.6,4.3,11.7,8.3,18.2,11.2c6,2.7,12.6,4.5,19.2,5.5c14,2.1,27.6-1.8,41.4-3.4c4.7-0.5,9.2-2.3,13.8-3.3
			c6.2-1.4,12.5-2.2,18.6-4.1c8.4-2.6,16.6-5.9,24.8-9C530.7,461.5,539.5,458,549.8,454z"/>
	</g>
</g>
</svg>
